{
  "accessors": [
    {
      "bufferView": 2,
      "componentType": 5126,
      "count": 4897,
      "max": [
        77.45882415771484,
        0.5043789744377136,
        70.50645446777344
      ],
      "min": [
        -68.00187683105469,
        -190.03936767578125,
        -61.7186393737793
      ],
      "type": "VEC3"
    },
    {
      "bufferView": 2,
      "byteOffset": 58764,
      "componentType": 5126,
      "count": 4897,
      "max": [
        0.9999117851257324,
        0.9999915361404419,
        0.9999977350234985
      ],
      "min": [
        -0.9998701214790344,
        -0.9998934864997864,
        -0.9999978542327881
      ],
      "type": "VEC3"
    },
    {
      "bufferView": 1,
      "componentType": 5126,
      "count": 4897,
      "max": [
        0.9581300020217896,
        0.9977719783782959
      ],
      "min": [
        0.00012199999764561653,
        0.0015259999781847
      ],
      "type": "VEC2"
    },
    {
      "bufferView": 0,
      "componentType": 5125,
      "count": 10536,
      "type": "SCALAR"
    }
  ],
  "asset": {
    "extras": {
      "author": "Tigerar1 (https://sketchfab.com/allanromanreyes)",
      "license": "SKETCHFAB Standard (https://sketchfab.com/licenses)",
      "source": "https://sketchfab.com/3d-models/rx-79-gundam-ground-type-6e87d8143a0e4cc4bac0775c160741af",
      "title": "RX-79 Gundam Ground Type"
    },
    "generator": "Sketchfab-15.61.0",
    "version": "2.0"
  },
  "bufferViews": [
    {
      "buffer": 0,
      "byteLength": 42144,
      "name": "floatBufferViews",
      "target": 34963
    },
    {
      "buffer": 0,
      "byteLength": 39176,
      "byteOffset": 42144,
      "byteStride": 8,
      "name": "floatBufferViews",
      "target": 34962
    },
    {
      "buffer": 0,
      "byteLength": 117528,
      "byteOffset": 81320,
      "byteStride": 12,
      "name": "floatBufferViews",
      "target": 34962
    }
  ],
  "buffers": [
    {
      "byteLength": 198848,
      "uri": "scene.bin"
    }
  ],
  "images": [
    {
      "uri": "textures/Material01_baseColor.png"
    }
  ],
  "materials": [
    {
      "doubleSided": true,
      "name": "Material01",
      "pbrMetallicRoughness": {
        "baseColorTexture": {
          "index": 0
        },
        "metallicFactor": 0.0
      }
    }
  ],
  "meshes": [
    {
      "name": "Object_0",
      "primitives": [
        {
          "attributes": {
            "NORMAL": 1,
            "POSITION": 0,
            "TEXCOORD_0": 2
          },
          "indices": 3,
          "material": 0,
          "mode": 4
        }
      ]
    }
  ],
  "nodes": [
    {
      "children": [
        1
      ],
      "matrix": [
        0.004899275489151478,
        -1.665307934809235e-16,
        0.9999880194664001,
        0.0,
        -1.6653345369377348e-16,
        -1.0,
        -1.6653345369377348e-16,
        0.0,
        0.9999880194664001,
        -1.6544559600336595e-16,
        -0.004899275489151478,
        0.0,
        0.0,
        0.0,
        0.0,
        1.0
      ],
      "name": "Sketchfab_model"
    },
    {
      "children": [
        2
      ],
      "name": "RX-79 Gundam Ground Type - Ren.obj.cleaner.materialmerger.gles"
    },
    {
      "mesh": 0,
      "name": "Object_2"
    }
  ],
  "samplers": [
    {
      "magFilter": 9729,
      "minFilter": 9987,
      "wrapS": 10497,
      "wrapT": 10497
    }
  ],
  "scene": 0,
  "scenes": [
    {
      "name": "Sketchfab_Scene",
      "nodes": [
        0
      ]
    }
  ],
  "textures": [
    {
      "sampler": 0,
      "source": 0
    }
  ]
}
