<?xml version="1.0" encoding="UTF-8"?>
<svg version="1.1" viewBox="0 0 1424 1600" width="1280" height="1280" xmlns="http://www.w3.org/2000/svg">
<path transform="translate(859 142)" d="m0 0c6.51 3.09 13 6.13 19.6 9.17 3.15 1.47 6.3 2.94 9.45 4.41 3.89 1.82 7.78 3.63 11.7 5.42 10.5 4.87 20.8 10.2 31 15.7 2.89 1.54 5.79 3.09 8.69 4.62 0.703 0.374 1.41 0.747 2.13 1.13 4.51 2.38 9.05 4.68 13.6 6.93 27.1 13.4 53.4 28.5 79.5 43.8 5.43 3.19 10.9 6.33 16.3 9.47 9.04 5.19 18 10.4 26.9 15.9 3.31 2.05 6.65 4.06 9.98 6.08 10.5 6.39 21 12.9 31.4 19.5 2.63 1.67 5.26 3.34 7.89 5 10.9 6.92 21.8 14 32.5 21.2 1.92 1.29 3.85 2.57 5.78 3.84 9.73 6.42 19.3 13.1 28.8 19.8 2.27 1.6 4.55 3.2 6.83 4.79 118 82.7 118 82.7 131 135 0.665 2.69 1.36 5.37 2.07 8.05 19.6 76.5 22 158 24.6 237 0.0303 0.89 0.0606 1.78 0.0918 2.7 1.8 53 1.71 106-0.0918 159-0.0316 0.956-0.0632 1.91-0.0957 2.9-6.91 209-6.91 209-72.7 311-5.03 4.65-10.2 9.1-15.5 13.4-2.46 1.98-4.86 4.01-7.25 6.07-7.59 6.52-15.5 12.6-23.5 18.6-2.81 2.13-5.58 4.29-8.37 6.45-13.8 10.6-27.9 20.8-42.4 30.5-2.79 1.89-5.57 3.81-8.34 5.73-32.9 22.7-66.6 44.2-101 64.6-2.17 1.3-4.33 2.6-6.5 3.91-18.8 11.3-37.7 22.3-56.8 33.1-3.69 2.07-7.36 4.16-11 6.27-15.7 9.01-31.7 17.5-47.8 25.9-3.18 1.67-6.35 3.35-9.53 5.03-30 15.9-60.4 31.1-91.3 45-1.34 0.603-2.67 1.21-4.01 1.81-38 17.1-77.1 33.5-118 42.2-1.8 0.394-1.8 0.394-3.64 0.797-54.7 10.2-118-23.1-166-45.8-3.44-1.61-6.88-3.2-10.3-4.79-18.1-8.33-35.9-17.1-53.7-26-1.04-0.52-2.09-1.04-3.17-1.58-12.9-6.41-25.6-13-38.2-20-4.74-2.61-9.52-5.12-14.3-7.61-7.91-4.14-15.7-8.48-23.5-12.9-6.38-3.63-12.8-7.22-19.2-10.8-12.1-6.71-24.2-13.6-36.1-20.7-3-1.8-6-3.59-9-5.38-12.4-7.43-24.8-15-37.1-22.6-2.84-1.77-5.68-3.53-8.53-5.3-24.7-15.3-49-31.2-72.9-47.8-2.61-1.81-5.23-3.61-7.85-5.42-10.7-7.42-21.4-15-31.7-22.9-2.62-1.99-5.26-3.96-7.9-5.93-1.94-1.46-3.88-2.92-5.81-4.38-1-0.754-2-1.51-3.03-2.29-9.19-7-18.1-14.3-27-21.7-0.61-0.508-1.22-1.02-1.85-1.54-10.1-8.42-19.7-17.4-29.2-26.5-0.822-0.773-1.64-1.55-2.49-2.34-1.51-1.66-1.51-1.66-1.51-3.66h-2c-56.2-60.3-49.6-189-52.9-267-0.122-2.84-0.256-5.68-0.39-8.52-0.282-6.16-0.498-12.3-0.695-18.5-0.0219-0.656-0.0438-1.31-0.0664-1.99-1.8-53.9-1.78-108 0.0664-162 0.0651-1.97 0.13-3.94 0.195-5.92 7.12-212 7.12-212 57.7-292 0.958-1.04 0.958-1.04 1.94-2.1 0.608-0.643 1.22-1.29 1.84-1.95 0.806-0.856 0.806-0.856 1.63-1.73 1.77-1.58 3.5-2.51 5.66-3.47v-2c1.4-1.41 1.4-1.41 3.38-3.06 3.2-2.72 6.34-5.48 9.44-8.31 5.25-4.73 10.7-9.18 16.2-13.6 1.23-1.01 2.46-2.02 3.69-3.04 8.56-7.03 17.3-13.8 26.2-20.4 2.22-1.64 4.44-3.29 6.65-4.94 50-37.2 103-70.8 156-103 0.849-0.506 1.7-1.01 2.57-1.53 30.8-18.3 61.9-35.9 93.4-52.8 2.93-1.58 5.84-3.18 8.75-4.78 15.9-8.72 32.2-16.9 48.4-25 1.8-0.9 3.59-1.8 5.39-2.7 16.4-8.21 32.8-16.1 49.5-23.7 2.55-1.17 5.11-2.35 7.66-3.53 17.2-7.97 34.5-15.3 52.3-21.8 1.14-0.423 2.28-0.845 3.46-1.28 86.3-31.9 151-11.7 232 26.6z" fill="#0D0F0F"/>
<path transform="translate(898,93)" d="m0 0c1.16 0.528 2.32 1.06 3.51 1.6 12.2 5.56 24.3 11.2 36.3 17.3 2.61 1.32 5.22 2.62 7.84 3.92 11.6 5.75 23.1 11.6 34.5 17.7 2.79 1.48 5.59 2.96 8.38 4.43 15.8 8.33 31.5 16.8 47 25.7 3.79 2.15 7.61 4.25 11.4 6.35 11.1 6.15 22.1 12.6 33.1 19.1 0.939 0.551 1.88 1.1 2.85 1.67 18.3 10.7 36.4 21.7 54.3 32.9 1.33 0.828 1.33 0.828 2.69 1.67 16.4 10.3 32.6 21 48.8 31.7 1.92 1.26 3.84 2.53 5.77 3.79 19.1 12.5 19.1 12.5 27.3 18.6 3.05 2.26 6.17 4.4 9.29 6.55 10 6.9 19.7 14.2 29.3 21.6 3.58 2.75 7.19 5.44 10.9 8.07 4.14 2.98 8.14 6.11 12.1 9.32 1.96 1.58 3.93 3.13 5.92 4.67 6.27 4.85 12.4 9.81 18.4 15 0.56 0.485 1.12 0.97 1.7 1.47 10.6 9.28 20.8 19 30.8 28.9 1.94 1.93 3.89 3.85 5.84 5.76 65.7 65.2 64.9 179 73 303 0.0533 1.09 0.107 2.18 0.161 3.3 3.65 76 3.61 153-0.161 229-0.0533 1.09-0.107 2.18-0.161 3.3-9.17 185-9.17 185-37.8 252-0.279 0.647-0.558 1.29-0.845 1.96-6.86 15.5-17.1 28.3-28.8 40.5-2.48 2.53-2.48 2.53-4.4 5.57h-2c-0.33 0.99-0.66 1.98-1 3h-2v2h-2v2c-1.57 1.55-1.57 1.55-3.69 3.31-3.26 2.77-6.32 5.62-9.31 8.69-5.14 5.25-10.4 10.2-16 15-1.44 1.24-1.44 1.24-2.9 2.5-7.31 6.26-14.8 12.3-22.4 18.2-1.6 1.24-3.2 2.49-4.8 3.74-8.69 6.74-17.5 13.2-26.4 19.8-2.46 1.81-4.91 3.63-7.36 5.45-0.806 0.598-1.61 1.2-2.44 1.81-1.5 1.11-2.99 2.22-4.48 3.33-13.6 10.1-27.7 19.3-41.7 28.8-1.85 1.25-3.69 2.5-5.54 3.75-11.9 8.04-23.8 15.9-36 23.5-2.56 1.6-5.1 3.23-7.64 4.86-13.6 8.75-27.4 17.2-41.3 25.6-2.42 1.46-4.85 2.93-7.27 4.39-41.3 25-83.5 48.4-126 70.6-4.22 2.19-8.42 4.4-12.6 6.63-19.1 10.1-38.6 19.5-58.3 28.6-3.27 1.51-6.54 3.03-9.8 4.57-90.8 42.5-170 72.1-282 34.3-37.2-13.5-73.5-30.3-109-47.7-4.14-2.03-8.31-4-12.5-5.97-9.05-4.28-17.9-8.75-26.8-13.5-3.71-1.99-7.47-3.86-11.2-5.71-11.8-5.83-23.4-12.2-35-18.4-2.69-1.45-5.38-2.89-8.07-4.34-20.9-11.3-41.5-23-62-35-2.39-1.4-4.78-2.8-7.17-4.19-19-11.1-37.8-22.7-56.5-34.4-0.832-0.519-1.66-1.04-2.52-1.57-15.8-9.9-31.3-20.3-46.8-30.7-3.68-2.46-7.36-4.92-11-7.36-14.8-9.78-29.3-19.9-43.6-30.4-1.48-1.08-2.95-2.16-4.43-3.24-9.28-6.81-18.5-13.7-27.6-20.8l-2.44-1.89c-9.42-7.29-18.6-14.8-27.7-22.5-1.35-1.12-2.72-2.21-4.1-3.29-8.92-7-16.8-15-24.8-23-2.45-2.46-4.92-4.9-7.38-7.34-59.2-59-63.5-150-70.6-229-0.0692-0.773-0.138-1.55-0.21-2.34-1.99-22.4-3.24-44.9-4.32-67.4-0.0951-1.98-0.191-3.95-0.287-5.93-1.86-38.6-2.39-77.1-2.37-116 1.2e-4 -1.19 2.39e-4 -2.37 3.62e-4 -3.6 0.00484-38 0.296-76 2.19-114 0.0533-1.09 0.107-2.17 0.161-3.29 0.773-15.6 1.73-31.1 2.84-46.7 0.0728-1.02 0.146-2.04 0.221-3.09 12.9-179 12.9-179 48.8-226 0.628-0.82 1.26-1.64 1.9-2.48 8.69-11.1 18.5-21.1 28.4-31 2.05-2.05 4.09-4.11 6.13-6.17 6.49-6.52 13-12.8 20.2-18.5 2.48-1.98 4.81-4.07 7.14-6.23 9.06-8.23 18.9-15.5 28.7-22.8 3.83-2.86 7.64-5.74 11.4-8.65 11-8.43 22.1-16.6 33.5-24.4 2.58-1.78 5.14-3.59 7.7-5.39 26.5-18.7 53.7-36.4 81.2-53.5 1.49-0.928 1.49-0.928 3-1.87 17.4-10.9 35-21.5 52.8-31.9 2-1.17 4-2.35 6-3.53 34.3-20.3 69.2-39.5 105-57.8 3.45-1.79 6.88-3.59 10.3-5.42 9.06-4.83 18.2-9.41 27.5-13.8 5.01-2.36 9.98-4.77 14.9-7.29 23.4-11.8 47.5-22.5 71.7-32.6 3.6-1.51 7.2-3.05 10.8-4.58 99.1-41.9 173-35 313 25.9zm-339 33.2c-1.84 0.847-3.69 1.69-5.53 2.54-19.5 8.96-38.8 18.5-58.1 28.1-1.14 0.567-2.28 1.13-3.45 1.72-14.3 7.13-28.4 14.5-42.4 22.2-3.41 1.87-6.84 3.7-10.3 5.52-1.16 0.616-2.33 1.23-3.53 1.87-1.74 0.918-1.74 0.918-3.51 1.85-26.4 14-52 29.2-77.6 44.6-2.45 1.47-4.89 2.94-7.34 4.4-20.2 12.1-40.3 24.3-60.1 37.1-0.589 0.379-1.18 0.758-1.79 1.15-11.2 7.19-22.3 14.5-33.3 21.9-2.67 1.78-5.34 3.55-8.01 5.33-25.6 17-50.5 34.9-74.9 53.6l-2.08 1.6c-7.45 5.75-14.7 11.7-21.9 17.8-2.72 2.32-5.51 4.56-8.32 6.79-7.28 5.92-14 12.4-20.8 18.9-1.2 1.16-2.41 2.31-3.62 3.46-62.7 59.5-58.1 181-62.9 277-0.0326 0.735-0.0653 1.47-0.0989 2.23-1.56 35.5-1.77 70.9-1.69 106 0.0113 5.78 0.00721 11.6-0.00541 17.4-0.0752 35.4 0.226 70.7 1.8 106 0.0317 0.716 0.0634 1.43 0.0961 2.17 1.29 146 1.29 146 75.7 287 1.61 1.46 3.22 2.91 4.83 4.36 0.726 0.652 1.45 1.3 2.2 1.98 1.92 1.7 3.85 3.36 5.8 5.02l1.45 1.24c1.66 1.42 3.32 2.84 4.99 4.26 0.514 0.439 1.03 0.878 1.56 1.33 3.82 3.24 7.75 6.33 11.7 9.4 2.15 1.67 4.3 3.34 6.44 5.03 10 7.88 20.2 15.5 30.5 23.1 2.18 1.59 4.35 3.18 6.52 4.78 16.6 12.1 33.7 23.5 50.8 34.9 3.16 2.11 6.31 4.22 9.46 6.34 11.2 7.53 22.4 15 34 21.9 4.27 2.57 8.48 5.22 12.7 7.87 11.9 7.5 23.9 14.7 36 21.9 7.97 4.71 15.9 9.47 23.8 14.3 16.4 10.1 33.1 19.7 50.1 28.9 7.04 3.78 14 7.68 20.9 11.6 6.75 3.84 13.5 7.56 20.5 11 6.07 2.97 12.1 6.08 18 9.2 25.1 13 50.3 25.8 76.1 37.5 3.44 1.56 6.86 3.14 10.3 4.72 25.1 11.5 50.6 22.5 76.8 31.1 2.5 0.828 4.98 1.68 7.47 2.54 84.2 28.9 160-8.75 249-51.1 4.38-2.15 8.75-4.3 13.1-6.47 2.55-1.26 5.1-2.52 7.64-3.78 19-9.39 38-18.8 56.5-29.2 3.87-2.13 7.8-4.16 11.7-6.19 9.13-4.76 18.1-9.83 27-14.9 3.32-1.89 6.66-3.76 10-5.59 11.2-6.13 22.2-12.7 33.1-19.4 0.592-0.362 1.18-0.723 1.79-1.1 0.584-0.357 1.17-0.714 1.77-1.08 4.42-2.7 8.87-5.34 13.4-7.95 18-10.5 35.7-21.4 53.3-32.6 2.2-1.4 4.41-2.78 6.63-4.16 12.4-7.72 24.5-15.8 36.6-23.9 3.58-2.4 7.16-4.78 10.8-7.16 10.9-7.2 21.6-14.6 32.2-22.2 0.717-0.514 1.43-1.03 2.17-1.56 5.29-3.79 10.6-7.61 15.8-11.4 0.792-0.575 1.58-1.15 2.4-1.74 10.2-7.42 20.2-15 30-23 2.22-1.8 4.47-3.57 6.71-5.35 8.97-7.19 17.7-14.6 26.1-22.5 3.58-3.34 3.58-3.34 5.78-4.44v-2c0.532-0.208 1.06-0.415 1.61-0.629 3.35-1.93 5.88-4.57 8.57-7.31 0.863-0.872 0.863-0.872 1.74-1.76 5.05-5.16 9.67-10.6 14.1-16.3 1.03-1.31 1.03-1.31 2.08-2.64 48.4-63.4 41.7-187 46.2-364-0.00344-5.89 0.00603-11.8 0.0225-17.7 0.0977-35.8-0.146-71.5-1.74-107-0.0318-0.715-0.0635-1.43-0.0963-2.17-3.55-115-3.55-115-29.5-226l-0.729-2.05c-6.89-19.2-19.5-33.4-33.3-48-0.743-0.785-1.48-1.57-2.25-2.38-1.54-1.59-3.14-3.11-4.75-4.62h-2v-2c-1.28-1.37-1.28-1.37-3.06-2.81-0.727-0.617-1.45-1.23-2.2-1.87l-2.73-2.32c-1.16-1.01-2.32-2.02-3.48-3.04-37.2-32.5-77.8-61-119-88.2-2.19-1.45-4.37-2.91-6.55-4.38-11.9-7.99-24-15.7-36-23.3-0.976-0.62-1.95-1.24-2.96-1.88-13.6-8.63-27.4-16.9-41.2-25.1-8.01-4.73-16-9.51-23.9-14.4-17-10.4-34.1-20.4-51.6-30-6.59-3.6-13.1-7.28-19.6-11.1-2.68-1.54-5.4-2.93-8.17-4.28-6.32-3.09-12.5-6.49-18.6-9.94-6.31-3.52-12.7-6.76-19.2-9.98-4.35-2.16-8.69-4.35-13-6.54-24-12.1-48.1-24.1-72.7-34.9-2.69-1.19-5.38-2.39-8.07-3.59-16.1-7.2-32.4-14-48.9-20.2-2.79-1.04-5.57-2.1-8.35-3.17-10.7-4.07-21.6-7.53-32.6-10.7-0.645-0.189-1.29-0.378-1.95-0.573-69.4-20.2-137 12.8-199 41.5z" fill="#0D0F0F"/>
<path transform="translate(560 803)" d="m0 0c1.85 0.00214 1.85 0.00214 3.75 0.00432 0.681-0.0019 1.36-0.0038 2.06-0.00575 2.26-0.00371 4.51 7e-3 6.77 0.0182 1.56 0.00119 3.13 0.00165 4.69 0.00139 3.28 0.00157 6.56 0.00986 9.84 0.0233 4.21 0.017 8.43 0.0208 12.6 0.0201 3.23 2.71e-4 6.46 0.00575 9.69 0.013 1.55 0.00319 3.11 0.00516 4.66 0.00589 2.17 0.00216 4.33 0.0109 6.5 0.0216 1.85 0.00572 1.85 0.00572 3.74 0.0116 2.76 0.134 2.76 0.134 3.76 1.13 0.102 1.78 0.134 3.56 0.139 5.34 0.00547 1.17 0.0109 2.33 0.0166 3.53 9.78e-4 1.3 0.00196 2.59 0.00296 3.93 0.00456 1.38 0.00956 2.76 0.015 4.14 0.0136 3.81 0.021 7.61 0.0274 11.4 0.00798 4.1 0.0217 8.19 0.0347 12.3 0.0218 7.11 0.0399 14.2 0.0556 21.3 0.0227 10.3 0.0508 20.5 0.0803 30.8 0.0477 16.7 0.091 33.3 0.131 50 0.0393 16.2 0.0808 32.4 0.125 48.6 0.00272 0.997 0.00545 1.99 0.00826 3.02 0.0137 5 0.0274 10 0.0411 15 0.114 41.5 0.221 83.1 0.323 125 0.643 0.00423 1.29 0.00846 1.95 0.0128 15.6 0.103 31.3 0.212 46.9 0.327 7.56 0.0553 15.1 0.109 22.7 0.158 6.59 0.0428 13.2 0.0891 19.8 0.14 3.49 0.0266 6.98 0.0515 10.5 0.0722 3.89 0.0232 7.78 0.054 11.7 0.0856 1.17 0.00576 2.33 0.0115 3.53 0.0174 1.05 0.00979 2.11 0.0196 3.19 0.0297 1.38 0.00968 1.38 0.00968 2.79 0.0196 2.08 0.139 2.08 0.139 3.08 1.14 0.358 7.4-0.558 14.6-1.54 21.9-0.263 1.96-0.517 3.91-0.77 5.87-0.98 7.44-2.08 14.9-3.26 22.3-0.138 0.869-0.276 1.74-0.418 2.63-0.336 2.12-0.672 4.23-1.01 6.35-25 0.0233-50 0.041-75 0.0518-11.6 0.00516-23.2 0.0122-34.8 0.0236-10.1 0.00994-20.2 0.0164-30.4 0.0186-5.36 0.00131-10.7 0.0044-16.1 0.0116-5.04 0.00676-10.1 0.00889-15.1 0.00738-1.86 2.76e-4 -3.71 0.00228-5.57 0.0061-2.52 0.00493-5.04 0.00379-7.57 0.00105-0.744 0.00291-1.49 0.00583-2.25 0.00883-5.04-0.015-5.04-0.015-6.15-1.13-0.0997-2.08-0.127-4.17-0.129-6.26-0.00175-0.664-0.00351-1.33-0.00531-2.01-0.0047-2.25-0.00218-4.51 2.34e-4 -6.76-0.00187-1.62-0.00417-3.24-0.00687-4.86-0.00615-4.47-0.00598-8.95-0.00481-13.4 2.03e-4 -4.82-0.00531-9.63-0.0101-14.5-0.00832-9.45-0.0111-18.9-0.0116-28.3-4.74e-4 -7.67-0.00252-15.3-0.0057-23-0.00881-21.7-0.0134-43.5-0.0127-65.2 4e-5 -1.17 7.99e-5 -2.35 1.21e-4 -3.55 4.09e-5 -1.17 8.18e-5 -2.35 1.24e-4 -3.56 4.07e-4 -19-0.00917-38.1-0.0233-57.1-0.0143-19.5-0.0213-39-0.0204-58.6 3.33e-4 -11-0.00245-21.9-0.0132-32.9-0.00908-9.34-0.0113-18.7-0.00449-28 0.00328-4.77 0.00327-9.54-0.00535-14.3-0.0078-4.36-0.0065-8.72 0.00228-13.1 0.00155-1.58-3.33e-4 -3.17-0.00586-4.75-0.00698-2.14-0.00183-4.28 0.00656-6.42-2.17e-4 -1.19-4.35e-4 -2.39-6.59e-4 -3.61 0.353-3.92 1.24-4.68 5.14-5.01z" fill="#0077D7"/>
<path transform="translate(801 896)" d="m0 0c0.978-0.00307 0.978-0.00307 1.98-0.0062 2.15-0.00301 4.31 0.0155 6.46 0.0345 1.5 0.00306 2.99 0.00493 4.49 0.00568 3.13 0.0046 6.26 0.019 9.4 0.0412 4.02 0.0283 8.05 0.0392 12.1 0.0437 3.09 0.00415 6.17 0.014 9.26 0.0259 1.48 0.00571 2.97 0.0105 4.45 0.0143 2.07 0.00684 4.14 0.0205 6.21 0.0363 1.18 0.00683 2.36 0.0137 3.57 0.0207 2.64 0.14 2.64 0.14 3.64 1.14 0.0971 1.61 0.124 3.23 0.123 4.84 0.00199 1.05 0.00398 2.11 0.00603 3.19-0.00291 1.17-0.00583 2.34-0.00883 3.55 8.54e-4 1.23 0.00171 2.47 0.00259 3.74 0.00137 3.44-0.00178 6.88-0.00678 10.3-0.0043 3.7-0.00286 7.41-0.0021 11.1 5.25e-4 6.42-0.00262 12.8-0.00824 19.3-0.00811 9.29-0.0107 18.6-0.012 27.9-0.00219 15.1-0.00885 30.1-0.0183 45.2-0.00917 14.6-0.0163 29.3-0.0205 43.9-2.63e-4 0.902-5.25e-4 1.8-7.96e-4 2.73-0.0013 4.52-0.00257 9.05-0.00381 13.6-0.0104 37.6-0.028 75.1-0.0503 113-8.98 0.0231-18 0.0409-26.9 0.0518-4.17 0.00523-8.34 0.0123-12.5 0.0236-4.02 0.0108-8.04 0.0168-12.1 0.0194-1.54 0.00185-3.07 0.00547-4.61 0.0109-2.15 0.00721-4.29 0.00826-6.44 0.0078-1.22 0.00222-2.45 0.00444-3.71 0.00673-2.74-0.12-2.74-0.12-3.74-1.12-1.05-8.43-1.15-16.9-1.14-25.4-0.00297-1.18-0.00594-2.35-9e-3 -3.57-0.00711-3.23-0.00985-6.45-0.0106-9.68-0.00187-3.49-0.00942-6.99-0.0161-10.5-0.0135-7.61-0.0196-15.2-0.024-22.8-0.00277-4.76-0.00701-9.51-0.0115-14.3-0.0122-13.2-0.0225-26.4-0.0259-39.5-2.2e-4 -0.841-4.39e-4 -1.68-6.65e-4 -2.55-2.18e-4 -0.843-4.37e-4 -1.69-6.61e-4 -2.55-4.43e-4 -1.71-8.9e-4 -3.42-0.00134-5.12-2.21e-4 -0.847-4.43e-4 -1.69-6.71e-4 -2.57-0.00396-13.8-0.0215-27.5-0.0447-41.3-0.0237-14.1-0.0362-28.3-0.0373-42.4-9.17e-4 -7.94-0.00669-15.9-0.0248-23.8-0.0154-6.75-0.0205-13.5-0.0123-20.2 0.00392-3.44 0.00292-6.89-0.0111-10.3-0.0126-3.73-0.00691-7.45 0.00358-11.2-0.0121-1.64-0.0121-1.64-0.0244-3.32 0.00659-0.994 0.0132-1.99 0.02-3.01-5.97e-4 -0.861-0.00119-1.72-0.00181-2.61 0.959-5.62 4.9-5.56 9.85-5.55z" fill="#0077D7"/>
<path transform="translate(641 406)" d="m0 0c6.81 6.07 9.76 12.7 10.9 21.7 0.253 8.42-1.02 16.4-6.69 22.9-5.07 4.76-9.85 6.84-16.3 10.1v26c2.64 1.32 5.28 2.64 8 4 7.23 3.82 11.5 10.5 13.9 18.2 2.37 9.49 0.745 19.5-4.12 28.1-0.598 0.908-1.2 1.82-1.81 2.75 2.93 4.02 6.29 7.09 10 10.3 2.44 2.12 4.7 4.38 6.95 6.7 0.825 0.825 1.65 1.65 2.5 2.5 0.825 0.825 1.65 1.65 2.5 2.5 1.18 1.14 1.18 1.14 2.38 2.31 2.77 2.83 5.33 5.79 7.88 8.82 1.71 1.95 1.71 1.95 3.96 3.48 0.589 0.456 1.18 0.913 1.79 1.38v2c3.23 1.74 6.51 2.89 10 4 0.33-0.99 0.66-1.98 1-3 2.81-1.56 2.81-1.56 6-3 0.61-0.344 1.22-0.688 1.85-1.04 6.39-2.84 15-2.56 21.7-0.93 8.85 3.52 14.4 10.6 18.4 19 0.33 0.99 0.66 1.98 1 3 15.8 0.495 15.8 0.495 32 1 0.99-3.96 0.99-3.96 2-8 2.07-6.02 8.79-9.85 14-13 4.63-1.87 8.58-2.27 13.6-2.25 1.28-0.00516 2.56-0.0103 3.88-0.0156 3.38 0.252 5.54 0.809 8.56 2.27 1.13 0.536 2.27 1.07 3.44 1.62 6.49 3.84 10.3 10.6 12.9 17.5 2.28 9.29 1.43 18.5-3.3 26.8-3.77 5.65-8.55 9.82-15 12-11.9 1.77-21.8 0.793-32-6-3.88-3.95-9-10.3-9-16h-30c-2.31 4.29-4.62 8.58-7 13-8.79 7.75-15.5 10.4-27.1 9.88-8.34-0.921-15-3.9-20.9-9.88-6.26-8.08-7.18-16.2-7.75-26.1-0.14-2.93-0.14-2.93-1.25-5.86-0.859-0.412-0.859-0.412-1.73-0.832-3.18-1.64-5.2-4.19-7.52-6.86-3.88-4.37-7.83-8.33-12.4-12-0.45-0.431-0.9-0.861-1.36-1.3v-2c-0.866-0.34-0.866-0.34-1.75-0.688-2.85-1.66-4.19-3.73-6.25-6.31-1.29-1.17-2.61-2.31-3.94-3.44-2.51-2.14-4.75-4.24-6.81-6.81-3.26-3.98-4.77-5.59-10-6.16-1.46-0.0408-2.93-0.0716-4.39-0.0938-8.83-0.332-16.1-1.18-22.8-7.5-0.825-0.701-1.65-1.4-2.5-2.12-6.49-7.46-8.34-14.3-7.99-24.2 1.04-7.91 4.23-14.6 10.5-19.7 0.536-0.451 1.07-0.902 1.62-1.37 4.1-3.24 7.09-4.05 12.4-4.63-0.11-4.25-0.241-8.5-0.375-12.8-0.0309-1.21-0.0619-2.41-0.0938-3.66-0.0387-1.16-0.0773-2.32-0.117-3.52-0.0314-1.07-0.0628-2.14-0.0952-3.24-0.316-2.82-0.72-4.51-2.32-6.84-1.64-0.67-3.28-1.34-4.93-1.98-7.21-3.54-12.3-9.51-15.2-16.9-2.01-7.71-2.41-16.1 1.37-23.3 2.24-3.37 4.8-6.17 7.81-8.88 0.639-0.701 1.28-1.4 1.94-2.12 2.47-2.24 5.05-3.47 8.06-4.88 0.33-0.33 0.66-0.66 1-1 11.4-2.13 19.7-1.11 29.1 6.29z" fill="#0077D7"/>
<path transform="translate(825 407)" d="m0 0c3.25 3.23 5.21 6.87 7.05 11 0.367 0.773 0.735 1.55 1.11 2.34 2.41 7.22 1.81 16.6-1.11 23.7-2 3.44-2 3.44-4 6h-2c-0.206 0.577-0.413 1.15-0.625 1.75-2.98 4.87-8.09 6.76-13.4 8.25-9.37 1.02-16.8-0.0559-25.3-4.1-2.6-1.14-2.6-1.14-4.85-0.293-2.13 1.59-3.72 3.29-5.42 5.33-4.46 5.32-4.46 5.32-6.44 7.06h-2c-0.227 0.557-0.454 1.11-0.688 1.69-1.69 2.97-3.78 5.03-6.31 7.31h-2c-0.227 0.557-0.454 1.11-0.688 1.69-2.28 4.01-5.63 6.76-9.19 9.62-3.8 3.17-7.57 6.4-10.1 10.7 0.417 3.57 1.21 5.72 3.08 8.75 1.31 3.23 1.18 6.09 1.17 9.57 0.00773 1.91 0.00773 1.91 0.0156 3.86-0.729 10.5-5.71 16.9-13.4 23.6-7.21 4.64-16.7 4.06-24.9 3.23-3.4-0.859-6.06-2.11-9-4-0.632-0.362-1.26-0.724-1.91-1.1-6.04-3.79-9.57-9.25-11.5-16.1-1.53-8.43-0.673-17.2 3.38-24.8h2c0.309-1.08 0.309-1.08 0.625-2.19 3.02-6.18 9.25-9.25 15.4-11.8 8.24-2.54 16.1-0.776 24 2 0.289-0.614 0.577-1.23 0.875-1.86 1.35-2.57 2.95-4.24 5.12-6.14h2c0.371-0.928 0.371-0.928 0.75-1.88 1.49-2.53 2.69-2.84 5.25-4.12 1.27-2.03 1.27-2.03 2-4h2l2-4h2l2-4h2c0.66-1.32 1.32-2.64 2-4h2c0.262-0.589 0.523-1.18 0.793-1.79 1.27-2.33 2.61-3.82 4.52-5.65 0.619-0.598 1.24-1.2 1.88-1.81 0.598-0.577 1.2-1.15 1.81-1.75 0.939-0.978 1.88-1.96 2.81-2.94 2.19-2.06 2.19-2.06 4.19-2.06-0.0954-1.12-0.191-2.25-0.289-3.4-0.899-11.6-1.33-21.1 6.29-30.6 12.8-13.5 30.6-14.7 45-3.03z" fill="#0077D7"/>
<path transform="translate(843,746)" d="m0 0c1.13 0.413 2.27 0.825 3.44 1.25 10.3 5.08 17.1 13.1 21.6 23.8 3.66 11 3.58 25.1-1.29 35.8-5.56 10.6-11.8 17.4-23.3 21.5-4.81 1.25-9.7 1.15-14.6 1.12-1.67-0.00641-1.67-0.00641-3.37-0.0129-8.17-0.17-14.4-1.05-21.4-5.49-0.675-0.384-1.35-0.768-2.05-1.16-4.8-3.01-7.84-7.18-11-11.8-1.11-1.55-1.11-1.55-2.25-3.12-5.55-10.4-4.42-24.8-1.75-35.9 2.44-6.41 5.8-11.5 11-16 0.598-0.66 1.2-1.32 1.81-2 11.1-10.2 29.1-13.3 43.2-8z" fill="#0077D7"/>
<path transform="translate(727,402)" d="m0 0c1.27 0.557 1.27 0.557 2.56 1.12 3.93 3.02 6.63 6.83 9.44 10.9 0.441 0.607 0.882 1.21 1.34 1.84 3.96 6.42 3.42 13.9 2.66 21.2-0.919 3.88-1.97 7.56-4 11-0.99 0.33-1.98 0.66-3 1-0.291 0.615-0.583 1.23-0.883 1.86-1.49 2.84-3.23 3.73-5.99 5.32-0.864 0.509-1.73 1.02-2.62 1.54-6.82 3.45-15.7 3.36-23 1.7-9.61-3.51-15-8.89-19.5-17.9-3-7.39-2.8-14.8-0.043-22.2 3.75-8.38 8.89-14 17-18.3 8.75-3.29 17.6-2.95 26 1z" fill="#0077D7"/>
<path transform="translate(820 492)" d="m0 0c6.21 4.79 12.5 11.4 14 19.3 0.0941 2.48 0.13 4.96 0.125 7.44 0.00387 1.95 0.00387 1.95 0.00781 3.93-0.111 3.03-0.42 5.69-1.13 8.63h-2c-0.268 0.969-0.536 1.94-0.812 2.94-0.588 1.52-0.588 1.52-1.19 3.06-0.99 0.33-1.98 0.66-3 1-0.312 0.625-0.624 1.25-0.945 1.89-1.28 2.55-2.5 3.34-4.93 4.79-0.678 0.416-1.36 0.833-2.05 1.26-6.8 3.45-16.2 2.96-23.6 1.59-5.05-1.71-9.68-4.87-13.5-8.54v-2h-2c-6.18-8.24-6.24-18-5-28 3-9.17 8.68-14.4 17.1-18.8 10.3-5.13 19.1-4.1 28.9 1.44z" fill="#0077D7"/>
<path transform="translate(622 576)" d="m0 0c1.3-0.0142 2.6-0.0284 3.93-0.043 7.58 0.481 13.3 4.64 18.4 10.1 6.5 8.21 8.23 15.7 7.26 26.1-1.37 7.92-4.62 14.5-11 19.6-8.29 5.54-19.1 5.73-28.7 3.93-8.18-2.49-13.6-6.86-18.1-14.1-4.17-8.08-4.1-17.3-1.44-25.9 3.8-9.18 9.42-14.1 18.2-18.4 3.73-1.33 7.51-1.17 11.4-1.19z" fill="#0077D7"/>
<path transform="translate(1279,377)" d="m0 0c1.94 0.312 1.94 0.312 4 1 0.495 1.49 0.495 1.49 1 3 0.825 0.33 1.65 0.66 2.5 1 0.825 0.33 1.65 0.66 2.5 1 0.495 1.49 0.495 1.49 1 3 1.92 1.17 1.92 1.17 4 2 0.66 0.33 1.32 0.66 2 1v2c0.588 0.271 1.18 0.541 1.78 0.82 5.07 2.7 9.26 7.08 13.2 11.2 0.578 0.536 1.15 1.07 1.75 1.62 1.25 1.38 1.25 1.38 1.25 3.38h2v2h2c2.55 2.46 4.73 5.28 7 8 0.789 0.926 1.58 1.85 2.39 2.8 0.799 0.951 1.6 1.9 2.42 2.88 0.749 0.891 1.5 1.78 2.27 2.7 1.92 2.61 1.92 2.61 2.99 5.38 0.458 1.1 0.458 1.1 0.926 2.23 1.48 0.495 1.48 0.495 3 1 1.96 2.98 2 4.26 2 8h2c3 6.5 3 6.5 3 11h2c1.45 4.54 2.24 8.18 2 13h2c0.675 2.71 1.34 5.41 2 8.12 0.286 1.14 0.286 1.14 0.578 2.3 1.03 4.29 1.65 8.12 1.42 12.6h2c3.32 17 5.88 34 7.74 51.2 0.117 1.07 0.117 1.07 0.236 2.15 0.211 1.94 0.415 3.88 0.619 5.82 0.103 2.69 0.103 2.69 1.4 3.79 0.23 1.54 0.398 3.08 0.541 4.63 0.0936 0.992 0.187 1.98 0.284 3.01 0.0979 1.09 0.196 2.17 0.297 3.29 0.104 1.12 0.209 2.24 0.316 3.4 0.339 3.66 0.67 7.32 1 11 0.169 1.86 0.169 1.86 0.341 3.76 0.754 8.31 1.49 16.6 2.22 24.9 0.0754 0.852 0.151 1.7 0.228 2.58 1.58 17.8 2.04 35.5 1.77 53.4h2c1.82 45.6 2.17 91.3 2.13 137-0.00378 5.07-0.0024 10.1 0.0018 15.2 0.0263 32.6-0.0426 65.2-1.13 97.9-0.0225 0.676-0.045 1.35-0.0682 2.05-0.139 4.15-0.282 8.3-0.432 12.5-0.0351 0.977-0.0701 1.95-0.106 2.96-0.274 6.42-0.274 6.42-1.39 7.54-0.182 1.84-0.299 3.68-0.389 5.53-0.06 1.18-0.12 2.36-0.182 3.58-0.0605 1.29-0.121 2.57-0.183 3.9-0.0652 1.31-0.13 2.62-0.197 3.96-0.173 3.48-0.341 6.97-0.508 10.5-0.171 3.55-0.347 7.1-0.523 10.7-0.344 6.97-0.683 13.9-1.02 20.9h-2c0.0348 0.856 0.0696 1.71 0.105 2.59 0.221 10.5-0.556 20.9-1.54 31.4-0.0675 0.731-0.135 1.46-0.204 2.22-0.195 2.1-0.398 4.19-0.604 6.28-0.12 1.23-0.241 2.45-0.365 3.72-0.389 2.78-0.389 2.78-1.39 3.78-0.287 1.82-0.516 3.64-0.719 5.47-0.128 1.13-0.255 2.26-0.387 3.42-0.13 1.19-0.26 2.38-0.395 3.61-0.13 1.16-0.26 2.32-0.395 3.52-0.373 3.33-0.74 6.66-1.11 9.98-0.198 1.78-0.396 3.56-0.594 5.34-0.134 1.21-0.268 2.41-0.406 3.66h-2c0.0348 0.62 0.0696 1.24 0.105 1.88 0.255 8.34-1.07 16-3.11 24.1-0.33 0.33-0.66 0.66-1 1-0.331 1.55-0.611 3.1-0.867 4.66-0.164 0.958-0.327 1.92-0.496 2.9-0.337 2.01-0.671 4.03-1 6.05-0.961 5.58-2.23 10.3-4.64 15.4-0.44 1.47-0.847 2.94-1.19 4.44-0.268 1.18-0.536 2.35-0.812 3.56h-2c-0.186 1.58-0.186 1.58-0.375 3.19-0.536 3.27-1.26 5.82-2.62 8.81h-2c-0.309 0.949-0.619 1.9-0.938 2.88-1.06 3.12-1.06 3.12-2.06 5.12h-2v3h-2v3c-1.62 1.71-3.3 3.37-5 5-3.36 3.74-3.36 3.74-6 8h-3c-0.33 1.32-0.66 2.64-1 4h-2v2h-2v2h-2v2h-2v2h-2v2h-2v2h-2v2c-0.804 0.268-1.61 0.536-2.44 0.812-0.846 0.392-1.69 0.784-2.56 1.19-0.33 0.99-0.66 1.98-1 3h-2v2c-2.31 2.62-2.31 2.62-5 5h-3v2h-2v2c-1.65 0.66-3.3 1.32-5 2v2c-1.65 0.66-3.3 1.32-5 2v2c-2.12 1.95-2.12 1.95-4.88 4.12-0.905 0.724-1.81 1.45-2.74 2.2-2.38 1.68-2.38 1.68-4.38 1.68v2c-1.65 0.66-3.3 1.32-5 2v2c-4.38 3-4.38 3-7 3v2c-1.32 0.33-2.64 0.66-4 1 3.95-4.11 8.18-7.69 12.6-11.2 1.44-1.16 2.88-2.32 4.31-3.48 0.697-0.561 1.39-1.12 2.11-1.7 6.85-5.52 13.6-11.1 20.3-16.8 0.583-0.496 1.17-0.991 1.77-1.5 2.67-2.29 5.18-4.58 7.65-7.11 2.21-2.14 2.21-2.14 4.21-2.14v-2c1.47-1.45 1.47-1.45 3.5-3.12 8.09-6.91 14.9-14.5 21.5-22.9 1.04-1.31 1.04-1.31 2.1-2.66 48.4-63.5 41.6-187 46.2-364-0.00344-5.89 0.00603-11.8 0.0225-17.7 0.0977-35.8-0.146-71.5-1.74-107-0.0318-0.715-0.0635-1.43-0.0963-2.17-3.55-115-3.55-115-29.5-226-0.241-0.675-0.481-1.35-0.729-2.05-7.52-20.9-22.6-39.8-39.9-53.7-0.438-0.419-0.877-0.838-1.33-1.27v-2c-0.529-0.21-1.06-0.42-1.6-0.637-3.38-1.92-5.97-4.5-8.77-7.18-1.11-1.05-2.22-2.1-3.34-3.14-0.541-0.509-1.08-1.02-1.64-1.54-1.65-1.5-3.34-2.92-5.06-4.33-0.853-0.718-1.71-1.44-2.59-2.18v-1z" fill="#000002"/>
<path transform="translate(1165,294)" d="m0 0c4.86 1.35 8.55 3.54 12.6 6.5 3.68 2.69 7.14 4.91 11.4 6.5 1.62 1.5 1.62 1.5 3 3 0.99 0.66 1.98 1.32 3 2v2c0.722 0.268 1.44 0.536 2.19 0.812 2.81 1.19 5.3 2.46 7.81 4.19v2c0.969 0.268 1.94 0.536 2.94 0.812 1.01 0.392 2.02 0.784 3.06 1.19 0.495 1.49 0.495 1.49 1 3-5.26-1.64-9.27-4.94-13.6-8.19-5.79-4.25-11.6-8.33-17.7-12.1-3.34-2.11-6.61-4.33-9.87-6.57-0.578-0.394-1.16-0.788-1.75-1.19-1.37-0.95-2.72-1.94-4.06-2.93v-1z" fill="#000002"/>
<path transform="translate(1205,1279)" d="m0 0v2c-2.36 1.76-4.72 3.39-7.19 5-0.674 0.451-1.35 0.902-2.04 1.37-3.49 2.3-6.79 4.27-10.8 5.63v2c-1.44 0.816-2.87 1.63-4.31 2.44-0.801 0.452-1.6 0.905-2.43 1.37-2.26 1.19-2.26 1.19-5.26 2.19v2c-1.98 0.66-3.96 1.32-6 2v2c-1.81 1.06-1.81 1.06-4 2-0.99-0.33-1.98-0.66-3-1 1.05-0.701 2.11-1.4 3.19-2.12 3.94-2.62 7.87-5.24 11.8-7.86 1.7-1.13 3.4-2.26 5.09-3.39 2.45-1.63 4.9-3.26 7.35-4.89 0.751-0.499 1.5-0.998 2.28-1.51 3.45-2.3 6.85-4.63 10.2-7.08 3.09-2.14 3.09-2.14 5.09-2.14z" fill="#000002"/>
<path transform="translate(1102,254)" d="m0 0c4.31 0.913 7.67 3.07 11.4 5.38 3.59 2.22 7.12 4.38 10.9 6.23 2.54 1.31 3.75 2.4 5.71 4.4 2.21 1.44 4.42 2.83 6.69 4.19 0.607 0.368 1.21 0.736 1.84 1.12 1.49 0.903 2.98 1.8 4.47 2.7-0.33 0.66-0.66 1.32-1 2-9.52-5.78-19-11.6-28.4-17.5-1.21-0.756-1.21-0.756-2.45-1.53-0.756-0.476-1.51-0.952-2.29-1.44-0.999-0.626-0.999-0.626-2.02-1.26-1.81-1.28-3.28-2.66-4.8-4.27z" fill="#000002"/>
<path transform="translate(1246,351)" d="m0 0c5.31 1.14 8.24 3.12 12 7 2.6 2.16 5.19 4.12 8 6v2c1.65 0.66 3.3 1.32 5 2v2c1.14 0.34 1.14 0.34 2.31 0.688 3.23 1.58 4.1 3.15 5.69 6.31-3.59-1.57-6.23-3.76-9.19-6.31-5.94-5.07-12.1-9.8-18.4-14.5-0.706-0.533-1.41-1.07-2.14-1.61-0.636-0.476-1.27-0.951-1.93-1.44-0.452-0.379-0.904-0.758-1.37-1.15v-1z" fill="#000002"/>
<path transform="translate(1212,326)" d="m0 0c3.45 0.64 5.85 2 8.75 3.94 1.2 0.787 1.2 0.787 2.42 1.59 0.905 0.729 0.905 0.729 1.83 1.47v2c0.701 0.227 1.4 0.454 2.12 0.688 3.49 1.59 5.96 3.83 8.88 6.31 2.22 1.28 2.22 1.28 4 2v2c1.65 0.66 3.3 1.32 5 2v3c-5.18-3.73-10.4-7.47-15.5-11.2-1.6-1.16-3.2-2.32-4.8-3.47-2.1-1.52-4.2-3.04-6.3-4.57-0.645-0.465-1.29-0.93-1.95-1.41-1.49-1.09-2.96-2.21-4.42-3.34v-1z" fill="#000002"/>
<path transform="translate(1241,1253)" d="m0 0v2h-2v2c-2.64 1.78-4.97 2.99-8 4v2c-1.98 0.66-3.96 1.32-6 2v2c-1.98 0.66-3.96 1.32-6 2 3.9-4.13 8.1-7.48 12.7-10.8 0.676-0.502 1.35-1 2.05-1.52 5.01-3.67 5.01-3.67 7.26-3.67z" fill="#000002"/>
<path transform="translate(1072,236)" d="m0 0c4.54 0.535 7.3 2.4 11 5 1.32 0.694 2.65 1.38 4 2v2c-3.68-1.37-6.95-3.04-10.3-5.06-0.883-0.527-1.77-1.05-2.68-1.6-0.664-0.442-1.33-0.884-2.01-1.34v-1z" fill="#000002"/>
<path transform="translate(1151,285)" d="m0 0c5.16 1.42 9.8 3.67 14 7v2c-3.6-1.32-6.64-2.92-9.81-5.06-0.79-0.527-1.58-1.05-2.39-1.6-0.592-0.442-1.18-0.884-1.79-1.34v-1z" fill="#000002"/>
</svg>
